/vscmnt/brussel_pixiu_data/_data_brussel/112/vsc11236/PredSimResults/SUBJ09opt3D/trackIG/worker_12.mot
version=1
nRows=9
nColumns=50
inDegrees=yes
endheader
                time	         pelvis_tilt	         pelvis_list	     pelvis_rotation	           pelvis_tx	           pelvis_ty	           pelvis_tz	       hip_flexion_r	     hip_adduction_r	      hip_rotation_r	        knee_angle_r	       ankle_angle_r	         mtp_angle_r	       hip_flexion_l	     hip_adduction_l	      hip_rotation_l	        knee_angle_l	       ankle_angle_l	         mtp_angle_l	    lumbar_extension	      lumbar_bending	     lumbar_rotation	 ercspn_r/activation	 intobl_r/activation	 extobl_r/activation	    abd_r/activation	    add_r/activation	hamstrings_r/activation	bifemsh_r/activation	glut_max_r/activation	iliopsoas_r/activation	rect_fem_r/activation	  vasti_r/activation	gastroc_r/activation	 soleus_r/activation	tib_ant_r/activation	 ercspn_l/activation	 intobl_l/activation	 extobl_l/activation	    abd_l/activation	    add_l/activation	hamstrings_l/activation	bifemsh_l/activation	glut_max_l/activation	iliopsoas_l/activation	rect_fem_l/activation	  vasti_l/activation	gastroc_l/activation	 soleus_l/activation	tib_ant_l/activation	
          0.00000000	         -6.16422080	         -3.48357496	          9.75232120	          0.00000000	          0.96982320	         -0.00397845	         34.03502185	         -0.11807219	         -9.45950513	         -7.64700091	          6.42256000	          0.27552750	        -16.93781913	         -5.12910323	         -1.55693232	         -9.48947149	          0.07310302	         42.51420316	        -11.80949854	          2.78306573	         -7.67186870	          0.06674730	          0.12518500	          0.01382650	          0.01434660	          0.33946949	          0.11082975	          0.20110606	          0.25145302	          0.14647998	          0.01000011	          0.01000010	          0.02589036	          0.01127215	          0.41373683	          0.04551642	          0.01000060	          0.01000099	          0.01980299	          0.11750383	          0.02400363	          0.23300130	          0.01382643	          0.31718480	          0.01000013	          0.01000017	          0.32272126	          0.15933058	          0.01382680	
          0.01055158	         -6.10609092	         -3.64599940	          9.70080281	          0.02286744	          0.96740975	         -0.00347007	         33.98799931	          0.13052941	         -9.56695201	         -9.92753009	          5.87189460	          0.21610551	        -17.09194946	         -5.51062212	         -2.10750447	        -11.50194232	         -1.44570302	         44.14696755	        -11.30371369	          3.16849888	         -7.81733062	          0.05676492	          0.10646256	          0.01175866	          0.17273396	          0.34694046	          0.09425438	          0.17102899	          0.35766884	          0.12457268	          0.01000007	          0.01000004	          0.02201826	          0.01175865	          0.47516750	          0.10161617	          0.01000007	          0.01000007	          0.01684129	          0.09993021	          0.02041371	          0.19815410	          0.01175858	          0.41566285	          0.01000007	          0.01000003	          0.27445559	          0.13550136	          0.01175889	
          0.02110316	         -6.03660931	         -3.79692323	          9.60489032	          0.04551310	          0.96537902	         -0.00285198	         33.89042417	          0.39375612	         -9.60560824	        -12.11110696	          5.23280071	          0.19692066	        -16.80512612	         -5.89942458	         -2.66742336	        -14.30639532	         -2.86792622	         45.14572865	        -10.84236090	          3.53930561	         -7.91678728	          0.06615057	          0.09054020	          0.01000011	          0.22208391	          0.32113098	          0.08015788	          0.14545019	          0.41378523	          0.10594179	          0.01000012	          0.03632438	          0.01872526	          0.01000009	          0.53883741	          0.08895695	          0.01000003	          0.01000014	          0.01432254	          0.08498487	          0.01736068	          0.16851856	          0.01000002	          0.43106039	          0.01000011	          0.01000003	          0.23340846	          0.11523600	          0.01000026	
          0.03165474	         -5.95757212	         -3.94313616	          9.46569788	          0.06760855	          0.96396059	         -0.00211616	         33.88118844	          0.67263614	         -9.57255165	        -14.40381397	          4.62529350	          0.14586630	        -15.99497175	         -6.31748924	         -3.22149506	        -17.99395749	         -4.22742216	         45.27167276	        -10.46323738	          3.90664303	         -7.96288423	          0.07292341	          0.07699917	          0.01000005	          0.25981903	          0.33655137	          0.06816969	          0.12369692	          0.42601222	          0.09009731	          0.01000015	          0.21758923	          0.01592477	          0.01000018	          0.57419160	          0.17046824	          0.01000003	          0.01000005	          0.01218048	          0.14197788	          0.01476426	          0.14331526	          0.01000001	          0.36659177	          0.01000008	          0.01000001	          0.19850027	          0.09800149	          0.01000001	
          0.04220632	         -5.87425170	         -4.07105440	          9.28537428	          0.08906267	          0.96332317	         -0.00129847	         33.84840382	          0.96260009	         -9.49872962	        -16.66103819	          4.39364912	          0.08413336	        -14.66418185	         -6.75916623	         -3.76664692	        -22.45775325	         -5.80608380	         44.55760487	        -10.17175347	          4.25629449	         -7.95623787	          0.06201716	          0.06548331	          0.01000005	          0.29986002	          0.29313805	          0.05797450	          0.10519703	          0.40755503	          0.07662251	          0.01000019	          0.37955170	          0.01354313	          0.01000036	          0.57919939	          0.17043571	          0.01000002	          0.01000008	          0.01035879	          0.19200681	          0.01255616	          0.12188133	          0.01000000	          0.31176493	          0.01000006	          0.01000000	          0.16881289	          0.08334455	          0.01000001	
          0.05275790	         -5.79396636	         -4.16889178	          9.06022572	          0.10978023	          0.96361005	         -0.00044244	         33.66016708	          1.27026892	         -9.37550811	        -18.63912729	          4.57442132	          0.03881367	        -12.84958284	         -7.21687660	         -4.29851905	        -27.51349042	         -7.80594694	         42.89631871	         -9.97363705	          4.57819629	         -7.89116972	          0.05274200	          0.05568974	          0.01000006	          0.33675100	          0.28535390	          0.05632481	          0.08946395	          0.34660193	          0.06516297	          0.01000012	          0.42063629	          0.01151770	          0.01000016	          0.54359461	          0.15764723	          0.01000003	          0.01000009	          0.01000000	          0.21024825	          0.01067833	          0.10365302	          0.01000000	          0.26513789	          0.01000005	          0.01000000	          0.14356551	          0.07087968	          0.02300693	
          0.06330948	         -5.72129387	         -4.22819917	          8.79408113	          0.12970815	          0.96478284	          0.00040671	         33.28394600	          1.59124628	         -9.17617052	        -20.25103266	          5.05744427	          0.01520396	        -10.63274690	         -7.67627457	         -4.74467837	        -32.97117545	         -9.94008147	         39.72717357	         -9.86946851	          4.86545714	         -7.76785962	          0.04485401	          0.04736088	          0.01000007	          0.34773440	          0.26513503	          0.06317714	          0.07608389	          0.29476476	          0.05541730	          0.01000007	          0.44967095	          0.01000016	          0.01000010	          0.47989184	          0.18657510	          0.05449742	          0.01585795	          0.01000005	          0.17880391	          0.01000022	          0.08815090	          0.01000004	          0.22548431	          0.01000053	          0.01000001	          0.12209409	          0.06027903	          0.19223769	
          0.07386106	         -5.65742071	         -4.26525516	          8.48962811	          0.14882166	          0.96666951	          0.00118342	         32.72923824	          1.92691192	         -8.92860454	        -21.48618394	          5.73937316	          0.01974167	         -8.14274151	         -8.07201581	         -4.93633623	        -38.64517315	        -11.33450976	         34.90960681	         -9.85433529	          5.13807530	         -7.57626945	          0.03814574	          0.04027767	          0.01000006	          0.31842757	          0.22548211	          0.05372854	          0.06470493	          0.25068026	          0.04712918	          0.01000009	          0.45933686	          0.01000021	          0.01000012	          0.40812047	          0.20868401	          0.06569882	          0.05411042	          0.01175849	          0.15206232	          0.01000011	          0.07496749	          0.01000004	          0.19176127	          0.01000026	          0.01000000	          0.10383390	          0.05126380	          0.21275155	
          0.08441264	         -5.60244192	         -4.29005686	          8.14475797	          0.16716759	          0.96915864	          0.00183267	         32.00971682	          2.27319820	         -8.65730088	        -22.34149082	          6.44521124	          0.07935343	         -5.51776642	         -8.32344958	         -4.85599880	        -44.27205447	        -11.20193163	         30.47019567	         -9.92044755	          5.40796774	         -7.31231755	          0.03244075	          0.03425381	          0.01000005	          0.27753264	          0.19175948	          0.05180045	          0.05502779	          0.21318896	          0.04008062	          0.01000016	          0.43127253	          0.01000020	          0.01000010	          0.34708273	          0.19565601	          0.05700274	          0.07517750	          0.01000001	          0.13524736	          0.01000007	          0.07754607	          0.01000001	          0.16308181	          0.01000124	          0.01000000	          0.08830467	          0.04359687	          0.24820596	
